<mxfile host="app.diagrams.net" modified="2024-05-22T16:07:48.256Z" agent="Mozilla/5.0 (Windows NT 10.0; Win64; x64; rv:126.0) Gecko/20100101 Firefox/126.0" etag="_95ynX3MzcWfH24b0f0B" version="24.4.4" type="device">
  <diagram name="Page-1" id="NTaLJW_a8URnDRKed0eY">
    <mxGraphModel dx="1034" dy="718" grid="1" gridSize="10" guides="1" tooltips="1" connect="1" arrows="1" fold="1" page="1" pageScale="1" pageWidth="827" pageHeight="1169" math="0" shadow="0">
      <root>
        <mxCell id="0" />
        <mxCell id="1" parent="0" />
        <mxCell id="hxb6iLKO6-ttAgAMA_WQ-4" value="" style="ellipse;whiteSpace=wrap;html=1;" parent="1" vertex="1">
          <mxGeometry x="480" y="320" width="140" height="80" as="geometry" />
        </mxCell>
        <mxCell id="hxb6iLKO6-ttAgAMA_WQ-3" value="" style="ellipse;whiteSpace=wrap;html=1;" parent="1" vertex="1">
          <mxGeometry x="80" y="330" width="150" height="80" as="geometry" />
        </mxCell>
        <mxCell id="hxb6iLKO6-ttAgAMA_WQ-2" value="" style="ellipse;whiteSpace=wrap;html=1;" parent="1" vertex="1">
          <mxGeometry x="294" y="120" width="120" height="80" as="geometry" />
        </mxCell>
        <mxCell id="7swQPlJp2Z5RyOKQFIcx-23" value="Grilles" style="swimlane;fontStyle=0;childLayout=stackLayout;horizontal=1;startSize=26;fillColor=none;horizontalStack=0;resizeParent=1;resizeParentMax=0;resizeLast=0;collapsible=1;marginBottom=0;whiteSpace=wrap;html=1;" parent="1" vertex="1">
          <mxGeometry x="480" y="37" width="160" height="200" as="geometry" />
        </mxCell>
        <mxCell id="7swQPlJp2Z5RyOKQFIcx-24" value="- Id" style="text;strokeColor=none;fillColor=none;align=left;verticalAlign=top;spacingLeft=4;spacingRight=4;overflow=hidden;rotatable=0;points=[[0,0.5],[1,0.5]];portConstraint=eastwest;whiteSpace=wrap;html=1;" parent="7swQPlJp2Z5RyOKQFIcx-23" vertex="1">
          <mxGeometry y="26" width="160" height="26" as="geometry" />
        </mxCell>
        <mxCell id="7swQPlJp2Z5RyOKQFIcx-25" value="- NomGrilles" style="text;strokeColor=none;fillColor=none;align=left;verticalAlign=top;spacingLeft=4;spacingRight=4;overflow=hidden;rotatable=0;points=[[0,0.5],[1,0.5]];portConstraint=eastwest;whiteSpace=wrap;html=1;" parent="7swQPlJp2Z5RyOKQFIcx-23" vertex="1">
          <mxGeometry y="52" width="160" height="26" as="geometry" />
        </mxCell>
        <mxCell id="7swQPlJp2Z5RyOKQFIcx-26" value="&lt;div&gt;&lt;br&gt;&lt;/div&gt;" style="text;strokeColor=none;fillColor=none;align=left;verticalAlign=top;spacingLeft=4;spacingRight=4;overflow=hidden;rotatable=0;points=[[0,0.5],[1,0.5]];portConstraint=eastwest;whiteSpace=wrap;html=1;" parent="7swQPlJp2Z5RyOKQFIcx-23" vertex="1">
          <mxGeometry y="78" width="160" height="122" as="geometry" />
        </mxCell>
        <mxCell id="7swQPlJp2Z5RyOKQFIcx-27" value="Pixel" style="swimlane;fontStyle=0;childLayout=stackLayout;horizontal=1;startSize=26;fillColor=none;horizontalStack=0;resizeParent=1;resizeParentMax=0;resizeLast=0;collapsible=1;marginBottom=0;whiteSpace=wrap;html=1;" parent="1" vertex="1">
          <mxGeometry x="280" y="360" width="160" height="140" as="geometry" />
        </mxCell>
        <mxCell id="7swQPlJp2Z5RyOKQFIcx-28" value="- Id" style="text;strokeColor=none;fillColor=none;align=left;verticalAlign=top;spacingLeft=4;spacingRight=4;overflow=hidden;rotatable=0;points=[[0,0.5],[1,0.5]];portConstraint=eastwest;whiteSpace=wrap;html=1;" parent="7swQPlJp2Z5RyOKQFIcx-27" vertex="1">
          <mxGeometry y="26" width="160" height="26" as="geometry" />
        </mxCell>
        <mxCell id="7swQPlJp2Z5RyOKQFIcx-29" value="&lt;div&gt;- Position X&lt;/div&gt;&lt;div&gt;&lt;br&gt;&lt;/div&gt;" style="text;strokeColor=none;fillColor=none;align=left;verticalAlign=top;spacingLeft=4;spacingRight=4;overflow=hidden;rotatable=0;points=[[0,0.5],[1,0.5]];portConstraint=eastwest;whiteSpace=wrap;html=1;" parent="7swQPlJp2Z5RyOKQFIcx-27" vertex="1">
          <mxGeometry y="52" width="160" height="26" as="geometry" />
        </mxCell>
        <mxCell id="7swQPlJp2Z5RyOKQFIcx-38" value="&lt;div&gt;- Position Y&lt;br&gt;&lt;/div&gt;" style="text;strokeColor=none;fillColor=none;align=left;verticalAlign=top;spacingLeft=4;spacingRight=4;overflow=hidden;rotatable=0;points=[[0,0.5],[1,0.5]];portConstraint=eastwest;whiteSpace=wrap;html=1;" parent="7swQPlJp2Z5RyOKQFIcx-27" vertex="1">
          <mxGeometry y="78" width="160" height="32" as="geometry" />
        </mxCell>
        <mxCell id="7swQPlJp2Z5RyOKQFIcx-39" value="&lt;div&gt;- Couleur&lt;br&gt;&lt;/div&gt;" style="text;strokeColor=none;fillColor=none;align=left;verticalAlign=top;spacingLeft=4;spacingRight=4;overflow=hidden;rotatable=0;points=[[0,0.5],[1,0.5]];portConstraint=eastwest;whiteSpace=wrap;html=1;" parent="7swQPlJp2Z5RyOKQFIcx-27" vertex="1">
          <mxGeometry y="110" width="160" height="30" as="geometry" />
        </mxCell>
        <mxCell id="7swQPlJp2Z5RyOKQFIcx-31" value="Users" style="swimlane;fontStyle=0;childLayout=stackLayout;horizontal=1;startSize=26;fillColor=none;horizontalStack=0;resizeParent=1;resizeParentMax=0;resizeLast=0;collapsible=1;marginBottom=0;whiteSpace=wrap;html=1;" parent="1" vertex="1">
          <mxGeometry x="80" y="37" width="160" height="200" as="geometry" />
        </mxCell>
        <mxCell id="7swQPlJp2Z5RyOKQFIcx-32" value="- Id" style="text;strokeColor=none;fillColor=none;align=left;verticalAlign=top;spacingLeft=4;spacingRight=4;overflow=hidden;rotatable=0;points=[[0,0.5],[1,0.5]];portConstraint=eastwest;whiteSpace=wrap;html=1;" parent="7swQPlJp2Z5RyOKQFIcx-31" vertex="1">
          <mxGeometry y="26" width="160" height="26" as="geometry" />
        </mxCell>
        <mxCell id="7swQPlJp2Z5RyOKQFIcx-36" value="- Password" style="text;strokeColor=none;fillColor=none;align=left;verticalAlign=top;spacingLeft=4;spacingRight=4;overflow=hidden;rotatable=0;points=[[0,0.5],[1,0.5]];portConstraint=eastwest;whiteSpace=wrap;html=1;" parent="7swQPlJp2Z5RyOKQFIcx-31" vertex="1">
          <mxGeometry y="52" width="160" height="26" as="geometry" />
        </mxCell>
        <mxCell id="7swQPlJp2Z5RyOKQFIcx-37" value="- Mail" style="text;strokeColor=none;fillColor=none;align=left;verticalAlign=top;spacingLeft=4;spacingRight=4;overflow=hidden;rotatable=0;points=[[0,0.5],[1,0.5]];portConstraint=eastwest;whiteSpace=wrap;html=1;" parent="7swQPlJp2Z5RyOKQFIcx-31" vertex="1">
          <mxGeometry y="78" width="160" height="26" as="geometry" />
        </mxCell>
        <mxCell id="7swQPlJp2Z5RyOKQFIcx-34" value="&lt;div&gt;- Pseudo&lt;br&gt;&lt;/div&gt;&lt;div&gt;&lt;br&gt;&lt;/div&gt;" style="text;strokeColor=none;fillColor=none;align=left;verticalAlign=top;spacingLeft=4;spacingRight=4;overflow=hidden;rotatable=0;points=[[0,0.5],[1,0.5]];portConstraint=eastwest;whiteSpace=wrap;html=1;" parent="7swQPlJp2Z5RyOKQFIcx-31" vertex="1">
          <mxGeometry y="104" width="160" height="96" as="geometry" />
        </mxCell>
        <mxCell id="7swQPlJp2Z5RyOKQFIcx-47" value="" style="endArrow=none;html=1;rounded=0;exitX=0.481;exitY=1.016;exitDx=0;exitDy=0;exitPerimeter=0;" parent="1" source="7swQPlJp2Z5RyOKQFIcx-26" edge="1">
          <mxGeometry relative="1" as="geometry">
            <mxPoint x="560" y="230" as="sourcePoint" />
            <mxPoint x="560" y="480" as="targetPoint" />
          </mxGeometry>
        </mxCell>
        <mxCell id="7swQPlJp2Z5RyOKQFIcx-49" value="" style="endArrow=none;html=1;rounded=0;entryX=0;entryY=0.377;entryDx=0;entryDy=0;entryPerimeter=0;exitX=1;exitY=0.188;exitDx=0;exitDy=0;exitPerimeter=0;" parent="1" source="7swQPlJp2Z5RyOKQFIcx-34" target="7swQPlJp2Z5RyOKQFIcx-26" edge="1">
          <mxGeometry relative="1" as="geometry">
            <mxPoint x="230" y="160" as="sourcePoint" />
            <mxPoint x="390" y="160" as="targetPoint" />
          </mxGeometry>
        </mxCell>
        <mxCell id="7swQPlJp2Z5RyOKQFIcx-50" value="" style="endArrow=none;html=1;rounded=0;exitX=0.481;exitY=1.016;exitDx=0;exitDy=0;exitPerimeter=0;" parent="1" edge="1">
          <mxGeometry relative="1" as="geometry">
            <mxPoint x="158.5" y="237" as="sourcePoint" />
            <mxPoint x="160" y="480" as="targetPoint" />
          </mxGeometry>
        </mxCell>
        <mxCell id="7swQPlJp2Z5RyOKQFIcx-52" value="" style="endArrow=none;html=1;rounded=0;" parent="1" edge="1">
          <mxGeometry relative="1" as="geometry">
            <mxPoint x="160" y="480" as="sourcePoint" />
            <mxPoint x="280" y="480" as="targetPoint" />
          </mxGeometry>
        </mxCell>
        <mxCell id="7swQPlJp2Z5RyOKQFIcx-53" value="" style="endArrow=none;html=1;rounded=0;" parent="1" edge="1">
          <mxGeometry relative="1" as="geometry">
            <mxPoint x="440" y="480" as="sourcePoint" />
            <mxPoint x="560" y="480" as="targetPoint" />
          </mxGeometry>
        </mxCell>
        <mxCell id="hxb6iLKO6-ttAgAMA_WQ-5" value="Modifier" style="text;html=1;align=center;verticalAlign=middle;whiteSpace=wrap;rounded=0;" parent="1" vertex="1">
          <mxGeometry x="324" y="122" width="60" height="30" as="geometry" />
        </mxCell>
        <mxCell id="hxb6iLKO6-ttAgAMA_WQ-6" value="Appartient" style="text;html=1;align=center;verticalAlign=middle;whiteSpace=wrap;rounded=0;" parent="1" vertex="1">
          <mxGeometry x="490" y="345" width="60" height="30" as="geometry" />
        </mxCell>
        <mxCell id="hxb6iLKO6-ttAgAMA_WQ-7" value="PossÃ©der" style="text;html=1;align=center;verticalAlign=middle;whiteSpace=wrap;rounded=0;" parent="1" vertex="1">
          <mxGeometry x="90" y="355" width="60" height="30" as="geometry" />
        </mxCell>
        <mxCell id="hxb6iLKO6-ttAgAMA_WQ-9" value="1,N" style="text;html=1;align=center;verticalAlign=middle;whiteSpace=wrap;rounded=0;" parent="1" vertex="1">
          <mxGeometry x="240" y="135" width="46" height="17" as="geometry" />
        </mxCell>
        <mxCell id="hxb6iLKO6-ttAgAMA_WQ-11" value="1,1" style="text;html=1;align=center;verticalAlign=middle;whiteSpace=wrap;rounded=0;" parent="1" vertex="1">
          <mxGeometry x="434" y="135" width="46" height="17" as="geometry" />
        </mxCell>
        <mxCell id="hxb6iLKO6-ttAgAMA_WQ-12" value="0,N" style="text;html=1;align=center;verticalAlign=middle;whiteSpace=wrap;rounded=0;" parent="1" vertex="1">
          <mxGeometry x="160" y="250" width="46" height="17" as="geometry" />
        </mxCell>
        <mxCell id="hxb6iLKO6-ttAgAMA_WQ-13" value="1,N" style="text;html=1;align=center;verticalAlign=middle;whiteSpace=wrap;rounded=0;" parent="1" vertex="1">
          <mxGeometry x="560" y="250" width="46" height="15" as="geometry" />
        </mxCell>
        <mxCell id="hxb6iLKO6-ttAgAMA_WQ-14" value="1,1" style="text;html=1;align=center;verticalAlign=middle;whiteSpace=wrap;rounded=0;" parent="1" vertex="1">
          <mxGeometry x="444" y="450" width="46" height="17" as="geometry" />
        </mxCell>
        <mxCell id="hxb6iLKO6-ttAgAMA_WQ-17" value="0,1" style="text;html=1;align=center;verticalAlign=middle;whiteSpace=wrap;rounded=0;" parent="1" vertex="1">
          <mxGeometry x="220" y="450" width="46" height="17" as="geometry" />
        </mxCell>
        <mxCell id="hxb6iLKO6-ttAgAMA_WQ-27" value="Users(id, Password, Mail, Pseudo)" style="text;html=1;align=center;verticalAlign=middle;whiteSpace=wrap;rounded=0;" parent="1" vertex="1">
          <mxGeometry x="36" y="570" width="200" height="20" as="geometry" />
        </mxCell>
        <mxCell id="hxb6iLKO6-ttAgAMA_WQ-28" value="Grilles(id, NomGrilles, Mail, Pseudo)" style="text;html=1;align=center;verticalAlign=middle;whiteSpace=wrap;rounded=0;" parent="1" vertex="1">
          <mxGeometry x="6" y="590" width="270" height="20" as="geometry" />
        </mxCell>
        <mxCell id="hxb6iLKO6-ttAgAMA_WQ-29" value="Pixel(id, Position_X, Position_Y, Couleur, idUsers, idGrilles)" style="text;html=1;align=center;verticalAlign=middle;whiteSpace=wrap;rounded=0;" parent="1" vertex="1">
          <mxGeometry x="32" y="610" width="340" height="20" as="geometry" />
        </mxCell>
      </root>
    </mxGraphModel>
  </diagram>
</mxfile>
